<svg width="35" height="35" viewBox="0 0 35 35" fill="none" xmlns="http://www.w3.org/2000/svg">
<path d="M24.6633 7.67432H10.0342C8.92961 7.67432 8.03418 8.56974 8.03418 9.67431V33.6302H26.6633V9.67432C26.6633 8.56975 25.7679 7.67432 24.6633 7.67432Z" stroke="#222223" stroke-width="2" stroke-miterlimit="10" stroke-linejoin="round"/>
<path d="M30.6974 4C30.6974 2.34315 29.3543 1 27.6974 1H7C5.34315 1 4 2.34315 4 4V31.6302C4 32.7348 4.89543 33.6302 6 33.6302H28.6974C29.802 33.6302 30.6974 32.7348 30.6974 31.6302V4Z" stroke="#222223" stroke-width="2" stroke-miterlimit="10" stroke-linejoin="round"/>
<line x1="17.5938" y1="7.81934" x2="17.5937" y2="33.6302" stroke="#222223" stroke-width="2" stroke-miterlimit="10" stroke-linejoin="round"/>
<line x1="12.9873" y1="4.1084" x2="16.3551" y2="4.1084" stroke="#222223" stroke-width="2" stroke-miterlimit="10" stroke-linejoin="round"/>
<line x1="18.3438" y1="4.1084" x2="21.7116" y2="4.1084" stroke="#222223" stroke-width="2" stroke-miterlimit="10" stroke-linejoin="round"/>
</svg>
