<svg width="35" height="35" viewBox="0 0 35 35" fill="none" xmlns="http://www.w3.org/2000/svg">
<path d="M18.3967 20.5713H33.6188L32.6562 26.3499C32.3178 28.3812 31.2697 30.2265 29.6984 31.5576C28.1271 32.8886 26.1345 33.619 24.0753 33.6188H10.5435C8.48426 33.619 6.4917 32.8886 4.92041 31.5576C3.34912 30.2265 2.30102 28.3812 1.96262 26.3499L1 20.5713H7.52376" fill="white"/>
<path d="M18.3967 20.5713H33.6188L32.6562 26.3499C32.3178 28.3812 31.2697 30.2265 29.6984 31.5576C28.1271 32.8886 26.1345 33.619 24.0753 33.6188H10.5435C8.48426 33.619 6.4917 32.8886 4.92041 31.5576C3.34912 30.2265 2.30102 28.3812 1.96262 26.3499L1 20.5713H7.52376" stroke="#222223" stroke-width="2" stroke-linecap="round" stroke-linejoin="round"/>
<path d="M17.3081 29.2694H8.60975C8.32139 29.2694 8.04483 29.1549 7.84092 28.951C7.63701 28.747 7.52246 28.4705 7.52246 28.1821V20.5711C7.52246 19.9943 7.75157 19.4412 8.15938 19.0334C8.5672 18.6256 9.12031 18.3965 9.69705 18.3965H16.2208C16.7975 18.3965 17.3507 18.6256 17.7585 19.0334C18.1663 19.4412 18.3954 19.9943 18.3954 20.5711V28.1821C18.3954 28.4705 18.2808 28.747 18.0769 28.951C17.873 29.1549 17.5965 29.2694 17.3081 29.2694Z" fill="white" stroke="#222223" stroke-width="2" stroke-linecap="round" stroke-linejoin="round"/>
<path d="M22.7451 5.34917C22.7451 4.1957 23.2033 3.08947 24.019 2.27384C24.8346 1.45822 25.9408 1 27.0943 1C28.2478 1 29.354 1.45822 30.1696 2.27384C30.9852 3.08947 31.4435 4.1957 31.4435 5.34917V20.5713" stroke="#222223" stroke-width="2" stroke-linecap="round" stroke-linejoin="round"/>
<path d="M18.3955 9.69829C18.3955 8.54482 18.8537 7.43859 19.6694 6.62296C20.485 5.80734 21.5912 5.34912 22.7447 5.34912C23.8982 5.34912 25.0044 5.80734 25.82 6.62296C26.6356 7.43859 27.0939 8.54482 27.0939 9.69829H18.3955Z" fill="white" stroke="#222223" stroke-width="2" stroke-linecap="round" stroke-linejoin="round"/>
</svg>
