<svg width="35" height="35" viewBox="0 0 35 35" fill="none" xmlns="http://www.w3.org/2000/svg">
<path d="M22.9775 2H3.74719C2.23074 2 1 3.23074 1 4.74719V29.4719C1 30.9883 2.23074 32.219 3.74719 32.219H22.9775C24.4939 32.219 25.7247 30.9883 25.7247 29.4719V4.74719C25.7247 3.23074 24.4939 2 22.9775 2Z" stroke="#222223" stroke-width="2" stroke-linecap="round" stroke-linejoin="round"/>
<path d="M13.3621 12.9883C11.5406 12.9883 9.79371 13.7119 8.50572 14.9999C7.21773 16.2879 6.49414 18.0347 6.49414 19.8562C6.49414 21.6777 7.21773 23.4246 8.50572 24.7126C9.79371 26.0006 11.5406 26.7242 13.3621 26.7242C15.1836 26.7242 16.9305 26.0006 18.2185 24.7126C19.5065 23.4246 20.2301 21.6777 20.2301 19.8562C20.2301 18.0347 19.5065 16.2879 18.2185 14.9999C16.9305 13.7119 15.1836 12.9883 13.3621 12.9883V12.9883Z" stroke="#222223" stroke-width="2" stroke-linecap="round" stroke-linejoin="round"/>
<circle cx="6.20026" cy="7.46003" r="1.96882" stroke="#222223" stroke-width="2" stroke-linecap="round" stroke-linejoin="round"/>
<circle cx="12.3936" cy="7.46003" r="1.96882" stroke="#222223" stroke-width="2" stroke-linecap="round" stroke-linejoin="round"/>
</svg>
