<svg width="35" height="35" viewBox="0 0 35 35" fill="none" xmlns="http://www.w3.org/2000/svg">
<path d="M28.9226 16.9613C28.9226 24.673 22.673 30.9226 14.9613 30.9226C7.24958 30.9226 1 24.673 1 16.9613C1 12.3464 3.23888 8.25706 6.68859 5.71357C9.00363 4.00775 11.8644 3 14.9613 3C18.6648 3 22.0333 4.44182 24.5337 6.79747" stroke="#222223" stroke-width="1.87888" stroke-linecap="round" stroke-linejoin="round"/>
<path d="M21.3067 23.1777C19.6948 24.8252 17.4457 25.8456 14.9606 25.8456C10.0539 25.8456 6.07617 21.8679 6.07617 16.9611C6.07617 14.0242 7.50022 11.4223 9.69595 9.80281C10.8459 8.95497 12.209 8.37875 13.6914 8.16553" stroke="#222223" stroke-width="1.87888" stroke-linecap="round" stroke-linejoin="round"/>
<path d="M28.9235 15.9155V32.1918V15.9155ZM34.0003 10.4985C34.0003 13.4024 31.7285 15.7581 28.9235 15.7556C26.1186 15.753 23.8441 13.4024 23.8467 10.4985C23.8492 7.59455 26.1186 3.06348 28.9261 3.06348C31.7335 3.06348 34.0003 7.59455 34.0003 10.4985Z" stroke="#222223" stroke-width="1.87888" stroke-linecap="round" stroke-linejoin="round"/>
</svg>
