<svg width="35" height="35" viewBox="0 0 35 35" fill="none" xmlns="http://www.w3.org/2000/svg">
<path d="M31.4706 9.80882L23.8529 12.348V9.80882C23.8529 8.79866 23.4516 7.82987 22.7373 7.11558C22.0231 6.40129 21.0543 6 20.0441 6H4.80882C3.79866 6 2.82987 6.40129 2.11558 7.11558C1.40128 7.82987 1 8.79866 1 9.80882V25.0441C1 26.0543 1.40128 27.0231 2.11558 27.7373C2.82987 28.4516 3.79866 28.8529 4.80882 28.8529H20.0441C21.0543 28.8529 22.0231 28.4516 22.7373 27.7373C23.4516 27.0231 23.8529 26.0543 23.8529 25.0441V22.5049L31.4706 25.0441V9.80882Z" fill="white" stroke="#222223" stroke-width="2" stroke-linecap="round" stroke-linejoin="round"/>
</svg>
