<svg width="100" height="100" viewBox="0 0 100 100" fill="none" xmlns="http://www.w3.org/2000/svg">
<rect width="100" height="100" fill="#000a41" fill-opacity="0.1"/>
<path d="M68.9922 62H30.9922V28C30.9922 26.343 32.3352 25 33.9922 25H65.9922C67.6492 25 68.9922 26.343 68.9922 28V62Z" fill="white"/>
<path d="M70.6861 44.9995H70.6811C70.2341 44.9995 69.7971 45.1285 69.4221 45.3725L52.1761 56.5825C51.5131 57.0135 50.7541 57.2285 49.9961 57.2285C49.2381 57.2285 48.4791 57.0135 47.8161 56.5825L30.5701 45.3725C30.1961 45.1285 29.7581 44.9995 29.3111 44.9995H29.3061C28.0301 44.9995 26.9961 46.0335 26.9961 47.3095V70.3025C26.9961 72.8965 29.2351 74.9995 31.9961 74.9995H67.9961C70.7571 74.9995 72.9961 72.8965 72.9961 70.3025V47.3095C72.9961 46.0335 71.9621 44.9995 70.6861 44.9995Z" fill="#F87E7E"/>
<path d="M72.9955 47.3095V70.2995C72.9955 72.8995 70.7555 74.9995 67.9955 74.9995H31.9955C30.0955 74.9995 28.4455 74.0095 27.6055 72.5395L69.4255 45.3695C69.7955 45.1295 70.2355 44.9995 70.6755 44.9995H70.6855C71.9655 44.9995 72.9955 46.0295 72.9955 47.3095Z" fill="#000a41"/>
<path d="M52 37H39C37.895 37 37 36.105 37 35C37 33.895 37.895 33 39 33H52C53.105 33 54 33.895 54 35C54 36.105 53.105 37 52 37Z" fill="#222223"/>
<path d="M61 37H59C57.895 37 57 36.105 57 35C57 33.895 57.895 33 59 33H61C62.105 33 63 33.895 63 35C63 36.105 62.105 37 61 37Z" fill="#222223"/>
<path d="M45 44H39C37.895 44 37 43.105 37 42C37 40.895 37.895 40 39 40H45C46.105 40 47 40.895 47 42C47 43.105 46.105 44 45 44Z" fill="#222223"/>
<path d="M61 44H52C50.895 44 50 43.105 50 42C50 40.895 50.895 40 52 40H61C62.105 40 63 40.895 63 42C63 43.105 62.105 44 61 44Z" fill="#222223"/>
</svg>
