<svg width="100" height="100" viewBox="0 0 100 100" fill="none" xmlns="http://www.w3.org/2000/svg">
<rect width="100" height="100" fill="#000a41" fill-opacity="0.1"/>
<path d="M50.3997 60.7547C49.6212 60.0248 48.4046 59.9275 47.4314 60.5114L46.5555 61.0467L44.0252 62.6524C43.052 63.285 41.7868 63.0417 41.2029 62.1658L37.5534 56.4726L33.9525 50.828C33.3686 49.9521 33.7092 48.6869 34.6824 48.0543L37.2127 46.4485L38.0886 45.9133C39.0618 45.2807 39.4998 44.1128 39.1592 43.1396L35.2663 32.629C34.8284 31.4124 33.3686 30.8772 32.0547 31.5098L31.7628 31.6557L27.0427 34.1861C24.8043 35.3053 23.3445 37.5923 23.4905 39.928C23.7825 44.5994 25.2909 53.0663 30.4003 61.0467C35.5096 69.027 42.6627 74.039 46.7989 76.2774C48.8913 77.3966 51.5676 77.0559 53.514 75.4988L57.7961 72.2386L58.0394 72.0439C59.1586 71.168 59.3046 69.6109 58.3314 68.6863L50.3997 60.7547Z" fill="#000a41"/>
<path d="M35.9476 34.4781L35.2663 32.629C34.8284 31.4124 33.3686 30.8772 32.0547 31.5098L31.7628 31.6557L27.0427 34.1861C24.8043 35.3053 23.3445 37.5923 23.4905 39.928C23.6365 42.4584 24.1717 46.0592 25.3883 50.0981C26.6534 45.2807 29.4757 39.0035 35.9476 34.4781Z" fill="white"/>
<path d="M49.4748 78.3698C48.307 78.3698 47.1391 78.0778 46.1173 77.5425C43.6842 76.2287 35.2173 71.2167 29.1834 61.8252C23.3928 52.823 22.2736 43.5775 22.0303 40.0253C21.8357 37.1057 23.5875 34.2347 26.3611 32.8722L31.4218 30.1959C31.9571 29.904 32.5897 29.8066 33.1736 29.8066C34.7307 29.8066 36.0932 30.7312 36.6285 32.1423L40.4726 42.6043C41.0566 44.2588 40.3753 46.1565 38.8182 47.1298L35.412 49.3195C35.266 49.4168 35.12 49.6114 35.0713 49.7574C35.0227 49.8547 35.0713 49.9521 35.12 50.0494L42.4191 61.4359C42.5164 61.5819 42.711 61.6306 42.8083 61.6306C42.9057 61.6306 43.0517 61.6306 43.1976 61.4846L46.6039 59.2949C47.2851 58.8569 48.015 58.6623 48.7936 58.6623C49.8155 58.6623 50.74 59.0516 51.4212 59.7328L59.3529 67.6158C60.0828 68.3457 60.4234 69.2703 60.3748 70.3408C60.3261 71.4113 59.7908 72.4818 58.915 73.1631L58.6717 73.3577L54.3895 76.6666C53.027 77.7372 51.2753 78.3698 49.4748 78.3698ZM33.1736 32.7263C33.0276 32.7263 32.833 32.7749 32.687 32.8236L32.395 32.9696L27.675 35.4513C25.9232 36.3271 24.804 38.0789 24.9013 39.8307C25.0959 43.1396 26.1665 51.8012 31.5678 60.2681C37.2124 69.027 45.1441 73.747 47.4311 74.9635C48.015 75.3042 48.6963 75.4501 49.4262 75.4501C50.5454 75.4501 51.6646 75.0608 52.5404 74.3309L57.0659 70.8274C57.3092 70.6327 57.4551 70.3894 57.4551 70.0975C57.4551 69.9515 57.4551 69.7569 57.2605 69.6109L49.3775 61.7765C49.1342 61.5332 48.5989 61.4846 48.2097 61.7279L44.8034 63.9176C44.2195 64.3069 43.5383 64.5015 42.8083 64.5015C41.6405 64.5015 40.57 63.9176 39.986 62.9931L32.687 51.6065C32.2004 50.8766 32.0544 50.0007 32.249 49.1248C32.4437 48.2003 33.0276 47.3731 33.8548 46.8378L37.2611 44.6481C37.6503 44.4048 37.845 43.9668 37.699 43.5775L33.9035 33.1155C33.8062 32.8236 33.4655 32.7263 33.1736 32.7263Z" fill="#000a41"/>
<path d="M76.4803 37.9328C76.383 45.9618 69.6192 52.2877 61.6389 52.2877H48.7925C48.0626 52.2877 47.5273 51.7037 47.5273 50.9738V37.9815C47.5273 29.9525 53.8532 23.1887 61.7848 23.0427C69.9598 22.9941 76.6263 29.6606 76.4803 37.9328Z" fill="white"/>
<path d="M61.6825 53.7478H48.7875C47.279 53.7478 46.0625 52.5313 46.0625 50.9741V38.0305C46.0625 29.1256 53.1183 21.7779 61.7798 21.6319C66.1106 21.5832 70.1981 23.2377 73.2637 26.3033C76.378 29.4176 78.0324 33.5537 77.9837 37.9331C77.8378 46.6434 70.49 53.7478 61.6825 53.7478ZM48.9335 50.8282H61.6338C68.8842 50.8282 74.9181 45.0376 75.0155 37.8845C75.0641 34.2836 73.7016 30.8774 71.1713 28.347C68.6409 25.8167 65.332 24.5029 61.7798 24.5515C54.7241 24.6488 48.9335 30.7314 48.9335 38.0305V50.8282Z" fill="white"/>
<path d="M61.693 42.5557H55.2212C54.394 42.5557 53.7614 41.9231 53.7614 41.0959C53.7614 40.2686 54.394 39.6361 55.2212 39.6361H61.6444C62.4716 39.6361 63.1042 40.2686 63.1042 41.0959C63.1042 41.9231 62.4716 42.5557 61.693 42.5557ZM67.5323 42.5557H67.435C66.6077 42.5557 65.9752 41.9231 65.9752 41.0959C65.9752 40.2686 66.6077 39.6361 67.435 39.6361H67.5323C68.3595 39.6361 68.9921 40.2686 68.9921 41.0959C68.9921 41.9231 68.3109 42.5557 67.5323 42.5557ZM68.0189 37.6896H55.1239C54.2966 37.6896 53.6641 37.0571 53.6641 36.2298C53.6641 35.4026 54.2966 34.77 55.1239 34.77H68.0189C68.8461 34.77 69.4787 35.4026 69.4787 36.2298C69.4787 37.0571 68.7975 37.6896 68.0189 37.6896Z" fill="#222223"/>
</svg>
