<svg width="24" height="24" viewBox="0 0 24 24" fill="none" xmlns="http://www.w3.org/2000/svg">
<path d="M22 6V18C22 18.7956 21.6839 19.5587 21.1213 20.1213C20.5587 20.6839 19.7956 21 19 21H4C3.20435 21 2.44129 20.6839 1.87868 20.1213C1.31607 19.5587 1 18.7956 1 18V6" stroke="#F85757" stroke-width="1.8" stroke-linecap="round" stroke-linejoin="round"/>
<path d="M22 6C22 5.20435 21.6839 4.44129 21.1213 3.87868C20.5587 3.31607 19.7956 3 19 3H4C3.20435 3 2.44129 3.31607 1.87868 3.87868C1.31607 4.44129 1 5.20435 1 6L9.91 11.546C10.3868 11.844 10.9377 12.002 11.5 12.002C12.0623 12.002 12.6132 11.844 13.09 11.546L22 6Z" stroke="#F85757" stroke-width="1.8" stroke-linecap="round" stroke-linejoin="round"/>
</svg>
